<?xml version="1.0" standalone="no"?>
<!DOCTYPE svg PUBLIC "-//W3C//DTD SVG 20010904//EN"
 "http://www.w3.org/TR/2001/REC-SVG-20010904/DTD/svg10.dtd">
<svg version="1.0" xmlns="http://www.w3.org/2000/svg"
 width="500.000000pt" height="500.000000pt" viewBox="0 0 500.000000 500.000000"
 preserveAspectRatio="xMidYMid meet">

<g transform="translate(0.000000,500.000000) scale(0.100000,-0.100000)"
fill="#000000" stroke="none">
<path d="M2850 4780 c0 -5 -9 -10 -20 -10 -11 0 -20 -4 -20 -10 0 -5 -9 -10
-20 -10 -11 0 -20 -4 -20 -10 0 -5 -5 -10 -11 -10 -6 0 -17 -7 -25 -15 -9 -8
-24 -15 -35 -15 -10 0 -19 -4 -19 -10 0 -5 -9 -10 -20 -10 -11 0 -20 -4 -20
-10 0 -5 -8 -10 -18 -10 -10 0 -24 -9 -32 -20 -8 -11 -22 -20 -32 -20 -10 0
-18 -4 -18 -10 0 -5 -9 -10 -20 -10 -11 0 -20 -4 -20 -10 0 -5 -6 -10 -13 -10
-7 0 -19 -9 -27 -20 -8 -11 -22 -20 -32 -20 -10 0 -18 -4 -18 -10 0 -5 -9 -10
-20 -10 -11 0 -20 -4 -20 -10 0 -5 -8 -10 -18 -10 -10 0 -24 -9 -32 -20 -8
-11 -22 -20 -32 -20 -10 0 -18 -4 -18 -9 0 -5 -15 -12 -33 -15 -18 -3 -39 -15
-47 -26 -8 -11 -22 -20 -32 -20 -10 0 -18 -4 -18 -10 0 -5 -9 -10 -20 -10 -11
0 -20 -4 -20 -10 0 -5 -8 -10 -18 -10 -10 0 -24 -9 -32 -20 -8 -11 -22 -20
-32 -20 -10 0 -18 -4 -18 -10 0 -5 -8 -10 -18 -10 -10 0 -24 -9 -32 -20 -8
-11 -20 -20 -27 -20 -7 0 -13 -4 -13 -10 0 -5 -9 -10 -20 -10 -11 0 -20 -4
-20 -10 0 -5 -8 -10 -18 -10 -10 0 -24 -9 -32 -19 -7 -11 -31 -23 -52 -26 -21
-4 -38 -11 -38 -16 0 -5 -8 -9 -18 -9 -10 0 -24 -9 -32 -20 -8 -11 -20 -20
-27 -20 -7 0 -13 -4 -13 -10 0 -5 -9 -10 -20 -10 -11 0 -20 -4 -20 -10 0 -5
-8 -10 -18 -10 -10 0 -24 -9 -32 -20 -8 -11 -22 -20 -32 -20 -10 0 -18 -4 -18
-10 0 -5 -9 -10 -20 -10 -11 0 -20 -4 -20 -10 0 -5 -8 -10 -18 -10 -10 0 -24
-9 -32 -20 -8 -11 -20 -20 -27 -20 -7 0 -13 -4 -13 -10 0 -5 -9 -10 -20 -10
-11 0 -20 -4 -20 -10 0 -5 -9 -10 -19 -10 -11 0 -26 -7 -35 -15 -8 -8 -22 -15
-30 -15 -9 0 -16 -4 -16 -10 0 -5 -9 -10 -20 -10 -11 0 -20 -4 -20 -10 0 -5
-9 -10 -20 -10 -11 0 -20 -4 -20 -10 0 -5 -9 -10 -20 -10 -20 0 -20 -7 -20
-494 l0 -494 38 -7 c21 -3 45 -15 52 -26 8 -10 22 -19 32 -19 10 0 18 -4 18
-10 0 -5 8 -10 18 -10 10 0 24 -9 32 -20 8 -11 22 -20 32 -20 10 0 18 -4 18
-10 0 -5 6 -10 13 -10 7 0 19 -9 27 -20 8 -11 22 -20 32 -20 10 0 18 -4 18
-10 0 -5 9 -10 20 -10 11 0 20 -4 20 -10 0 -5 8 -10 18 -10 10 0 24 -9 32 -20
8 -11 22 -20 32 -20 10 0 18 -4 18 -10 0 -5 9 -10 19 -10 11 0 26 -7 35 -15 8
-8 19 -15 25 -15 6 0 11 -4 11 -10 0 -5 8 -10 18 -10 10 0 24 -9 32 -20 8 -11
22 -20 32 -20 10 0 18 -4 18 -10 0 -5 8 -10 18 -10 10 0 24 -9 32 -20 8 -11
22 -20 32 -20 10 0 18 -4 18 -10 0 -5 9 -10 20 -10 11 0 20 -4 20 -10 0 -5 6
-10 13 -10 7 0 19 -9 27 -20 8 -11 22 -20 32 -20 10 0 18 -4 18 -10 0 -5 7
-10 16 -10 8 0 22 -7 30 -15 9 -8 24 -15 35 -15 12 0 19 -7 19 -20 0 -13 -7
-20 -20 -20 -11 0 -20 -4 -20 -10 0 -5 -9 -10 -20 -10 -11 0 -20 -4 -20 -10 0
-5 -8 -10 -18 -10 -10 0 -24 -9 -32 -20 -8 -11 -22 -20 -32 -20 -10 0 -18 -4
-18 -10 0 -5 -7 -10 -15 -10 -8 0 -15 -4 -15 -10 0 -5 -8 -10 -18 -10 -10 0
-24 -9 -32 -20 -8 -11 -22 -20 -32 -20 -10 0 -18 -4 -18 -10 0 -5 -9 -10 -20
-10 -11 0 -20 -4 -20 -10 0 -5 -7 -10 -16 -10 -8 0 -22 -7 -30 -15 -9 -8 -24
-15 -35 -15 -10 0 -19 -4 -19 -10 0 -5 -7 -10 -15 -10 -8 0 -15 -4 -15 -10 0
-5 -8 -10 -18 -10 -10 0 -24 -9 -32 -20 -8 -11 -22 -20 -32 -20 -10 0 -18 -4
-18 -10 0 -5 -9 -10 -20 -10 -11 0 -20 -4 -20 -10 0 -5 -8 -10 -18 -10 -10 0
-24 -9 -32 -20 -8 -11 -22 -20 -32 -20 -10 0 -18 -4 -18 -10 0 -5 -7 -10 -15
-10 -8 0 -15 -4 -15 -10 0 -5 -9 -10 -20 -10 -11 0 -20 -4 -20 -10 0 -5 -9
-10 -20 -10 -20 0 -20 -7 -20 -510 0 -503 0 -510 20 -510 11 0 20 -4 20 -10 0
-5 8 -10 18 -10 10 0 24 -9 32 -20 8 -11 20 -20 27 -20 7 0 13 -4 13 -10 0 -5
7 -10 16 -10 9 0 24 -8 33 -19 9 -10 32 -22 51 -26 19 -4 42 -16 51 -26 9 -11
24 -19 33 -19 9 0 16 -4 16 -10 0 -5 9 -10 20 -10 11 0 20 -4 20 -10 0 -5 6
-10 13 -10 7 0 19 -9 27 -20 8 -11 22 -20 32 -20 10 0 18 -4 18 -10 0 -5 8
-10 18 -10 10 0 24 -9 32 -20 8 -11 22 -20 32 -20 10 0 18 -4 18 -10 0 -5 8
-10 18 -10 10 0 24 -9 32 -20 8 -11 20 -20 27 -20 7 0 13 -4 13 -10 0 -5 9
-10 19 -10 11 0 26 -7 35 -15 8 -8 22 -15 30 -15 9 0 16 -4 16 -10 0 -5 9 -10
20 -10 11 0 20 -4 20 -10 0 -5 8 -10 18 -10 10 0 24 -9 32 -20 15 -21 70 -28
70 -10 0 6 5 10 11 10 6 0 24 14 39 30 15 17 33 30 40 30 6 0 18 7 26 15 9 8
24 15 35 15 10 0 19 5 19 10 0 6 9 10 20 10 11 0 20 5 20 10 0 6 8 10 18 10
10 0 24 9 32 20 8 11 20 20 27 20 7 0 13 5 13 10 0 6 9 10 20 10 11 0 20 5 20
10 0 6 8 10 18 10 10 0 24 9 32 20 8 11 22 20 32 20 10 0 18 5 18 10 0 6 9 10
20 10 11 0 20 5 20 10 0 6 8 10 18 10 10 0 24 9 32 20 8 11 20 20 27 20 7 0
13 4 13 9 0 5 17 12 38 16 21 3 45 15 52 26 8 10 22 19 32 19 10 0 18 5 18 10
0 6 9 10 20 10 11 0 20 5 20 10 0 6 8 10 18 10 10 0 24 9 32 20 8 11 20 20 27
20 7 0 13 5 13 10 0 6 18 10 40 10 33 0 40 3 40 20 0 13 7 20 18 20 10 0 24 9
32 20 8 11 22 20 32 20 10 0 18 5 18 10 0 6 9 10 20 10 11 0 20 4 20 10 0 5
11 12 25 16 14 3 25 10 25 15 0 5 8 9 18 9 10 0 24 9 32 20 8 11 22 20 32 20
10 0 18 5 18 10 0 6 9 10 20 10 11 0 20 5 20 10 0 6 8 10 18 10 10 0 24 9 32
20 8 11 22 20 32 20 10 0 18 5 18 10 0 6 7 10 15 10 8 0 15 5 15 10 0 6 8 10
18 10 10 0 24 9 32 20 8 11 22 20 32 20 10 0 18 5 18 10 0 6 9 10 20 10 11 0
20 5 20 10 0 6 9 10 19 10 11 0 26 7 35 15 8 8 22 15 30 15 9 0 16 5 16 10 0
6 7 10 15 10 8 0 15 5 15 10 0 6 7 10 16 10 44 0 44 1 44 528 l0 500 -33 6
c-18 3 -39 15 -47 26 -8 11 -22 20 -32 20 -10 0 -18 5 -18 10 0 6 -8 10 -18
10 -10 0 -24 9 -32 20 -8 11 -22 20 -32 20 -10 0 -18 5 -18 10 0 6 -9 10 -20
10 -11 0 -20 5 -20 10 0 6 -8 10 -18 10 -10 0 -24 9 -32 20 -8 11 -20 20 -27
20 -7 0 -13 5 -13 10 0 6 -8 10 -18 10 -10 0 -24 9 -32 20 -8 11 -22 20 -32
20 -10 0 -18 5 -18 10 0 6 -9 10 -19 10 -11 0 -26 7 -35 15 -8 8 -22 15 -30
15 -9 0 -16 5 -16 10 0 6 -9 10 -19 10 -11 0 -23 9 -26 20 -3 11 -15 20 -26
20 -10 0 -19 5 -19 10 0 6 -8 10 -18 10 -10 0 -24 9 -32 20 -8 11 -22 20 -32
20 -10 0 -18 5 -18 10 0 6 -9 10 -20 10 -11 0 -20 5 -20 10 0 6 -8 10 -18 10
-10 0 -24 9 -32 20 -8 11 -20 20 -27 20 -7 0 -13 5 -13 10 0 6 -7 10 -16 10
-8 0 -22 7 -30 15 -9 8 -24 15 -35 15 -12 0 -19 7 -19 20 0 13 7 20 20 20 11
0 20 5 20 10 0 6 9 10 20 10 11 0 20 5 20 10 0 6 6 10 13 10 7 0 19 9 27 20 8
11 22 20 32 20 10 0 18 5 18 10 0 6 8 10 18 10 10 0 24 9 32 20 8 11 22 20 32
20 10 0 18 5 18 10 0 6 9 10 20 10 11 0 20 5 20 10 0 6 8 10 18 10 10 0 24 9
32 20 8 11 29 23 47 26 18 3 33 10 33 15 0 5 8 9 18 9 10 0 24 9 32 20 8 11
22 20 32 20 10 0 18 5 18 10 0 6 9 10 20 10 11 0 20 5 20 10 0 6 8 10 18 10
10 0 24 9 32 20 8 11 20 20 27 20 7 0 13 5 13 10 0 6 9 10 20 10 11 0 20 5 20
10 0 6 9 10 20 10 20 0 20 7 20 516 0 544 0 544 -44 544 -9 0 -16 5 -16 10 0
6 -9 10 -20 10 -11 0 -20 5 -20 10 0 6 -6 10 -13 10 -7 0 -19 9 -27 20 -8 11
-22 20 -32 20 -10 0 -18 5 -18 10 0 6 -9 10 -19 10 -11 0 -26 7 -35 15 -8 8
-22 15 -30 15 -9 0 -16 5 -16 10 0 6 -8 10 -18 10 -10 0 -24 9 -32 20 -8 11
-20 20 -27 20 -7 0 -13 5 -13 10 0 6 -8 10 -18 10 -10 0 -24 9 -32 20 -8 11
-22 20 -32 20 -10 0 -18 5 -18 10 0 6 -8 10 -18 10 -10 0 -24 9 -32 20 -8 11
-22 20 -32 20 -10 0 -18 5 -18 10 0 6 -9 10 -20 10 -11 0 -20 5 -20 10 0 6 -5
10 -11 10 -6 0 -17 7 -25 15 -9 8 -24 15 -35 15 -10 0 -19 5 -19 10 0 6 -7 10
-16 10 -9 0 -29 14 -44 30 -29 31 -40 37 -40 20z m0 -110 c0 -5 9 -10 20 -10
11 0 20 -4 20 -10 0 -5 8 -10 18 -10 10 0 24 -9 32 -20 8 -11 22 -20 32 -20
10 0 18 -4 18 -10 0 -5 6 -10 13 -10 7 0 19 -9 27 -20 8 -11 22 -20 32 -20 10
0 18 -4 18 -10 0 -5 8 -10 18 -10 10 0 24 -9 32 -20 8 -11 22 -20 32 -20 10 0
18 -4 18 -10 0 -5 9 -10 20 -10 11 0 20 -4 20 -10 0 -5 9 -10 19 -10 11 0 26
-7 35 -15 8 -8 19 -15 25 -15 6 0 11 -4 11 -10 0 -5 8 -10 18 -10 10 0 24 -9
32 -20 8 -11 22 -20 32 -20 10 0 18 -4 18 -10 0 -5 8 -10 18 -10 10 0 24 -9
32 -20 8 -11 22 -20 32 -20 10 0 18 -3 18 -6 0 -11 -29 -34 -42 -34 -8 0 -20
-9 -28 -20 -8 -11 -22 -20 -32 -20 -10 0 -18 -4 -18 -10 0 -5 -9 -10 -20 -10
-11 0 -20 -4 -20 -10 0 -5 -9 -10 -19 -10 -11 0 -26 -7 -35 -15 -8 -8 -19 -15
-25 -15 -6 0 -11 -4 -11 -10 0 -5 -9 -10 -20 -10 -11 0 -20 -4 -20 -10 0 -5
-8 -10 -18 -10 -10 0 -24 -9 -32 -20 -8 -11 -22 -20 -32 -20 -10 0 -18 -4 -18
-10 0 -5 -9 -10 -20 -10 -11 0 -20 -4 -20 -10 0 -5 -8 -10 -18 -10 -10 0 -24
-9 -32 -20 -8 -11 -20 -20 -27 -20 -7 0 -13 -4 -13 -10 0 -5 -9 -10 -20 -10
-11 0 -20 -4 -20 -10 0 -5 -8 -10 -18 -10 -10 0 -24 -9 -32 -19 -7 -11 -31
-23 -52 -26 -21 -4 -38 -11 -38 -16 0 -5 -9 -9 -20 -9 -11 0 -20 4 -20 10 0 5
-16 12 -35 16 -19 3 -35 10 -35 15 0 5 -8 9 -18 9 -10 0 -24 9 -32 20 -8 11
-22 20 -32 20 -10 0 -18 5 -18 10 0 6 -8 10 -18 10 -10 0 -24 9 -32 20 -8 11
-22 20 -32 20 -10 0 -18 5 -18 10 0 6 -6 10 -13 10 -7 0 -19 9 -27 20 -8 11
-22 20 -32 20 -10 0 -18 5 -18 10 0 6 -8 10 -18 10 -10 0 -24 9 -32 20 -8 11
-22 20 -32 20 -10 0 -18 5 -18 10 0 6 -9 10 -19 10 -11 0 -26 7 -35 15 -8 8
-22 15 -30 15 -9 0 -16 5 -16 10 0 6 -7 10 -15 10 -8 0 -15 5 -15 10 0 6 -9
10 -20 10 -12 0 -20 7 -20 16 0 20 24 44 44 44 9 0 16 5 16 10 0 6 7 10 15 10
8 0 15 5 15 10 0 6 8 10 18 10 10 0 24 9 32 20 8 11 22 20 32 20 10 0 18 5 18
10 0 6 8 10 18 10 10 0 24 9 32 19 7 11 31 23 52 26 21 4 38 11 38 16 0 5 6 9
13 9 7 0 19 9 27 20 8 11 22 20 32 20 10 0 18 5 18 10 0 6 9 10 20 10 11 0 20
5 20 10 0 6 8 10 18 10 10 0 24 9 32 20 8 11 22 20 32 20 10 0 18 5 18 10 0 6
9 10 20 10 11 0 20 5 20 10 0 6 6 10 13 10 7 0 19 9 27 20 8 11 22 20 32 20
10 0 18 5 18 10 0 6 5 10 10 10 6 0 10 -4 10 -10z m710 -910 c0 -376 -2 -430
-15 -430 -8 0 -15 -4 -15 -10 0 -5 -8 -10 -18 -10 -10 0 -24 -9 -32 -20 -8
-11 -22 -20 -32 -20 -10 0 -18 -4 -18 -10 0 -5 -9 -10 -20 -10 -11 0 -20 -4
-20 -10 0 -5 -8 -10 -18 -10 -10 0 -24 -9 -32 -20 -8 -11 -22 -20 -32 -20 -10
0 -18 -4 -18 -10 0 -5 -7 -10 -15 -10 -8 0 -15 -4 -15 -10 0 -5 -8 -10 -18
-10 -10 0 -24 -9 -32 -20 -8 -11 -22 -20 -32 -20 -10 0 -18 -4 -18 -9 0 -5
-17 -12 -38 -16 -21 -3 -45 -15 -52 -26 -8 -10 -22 -19 -32 -19 -10 0 -18 -4
-18 -10 0 -5 -7 -10 -15 -10 -8 0 -15 -4 -15 -10 0 -5 -8 -10 -18 -10 -10 0
-24 -9 -32 -20 -8 -11 -22 -20 -32 -20 -10 0 -18 -4 -18 -10 0 -5 -9 -10 -20
-10 -20 0 -20 7 -20 405 0 263 3 405 10 405 6 0 10 7 10 15 0 9 11 27 25 40
13 14 31 25 40 25 8 0 15 5 15 10 0 6 8 10 18 10 10 0 24 9 32 20 8 10 28 22
44 26 17 4 38 15 47 25 9 11 24 19 33 19 9 0 16 5 16 10 0 6 9 10 20 10 11 0
20 5 20 10 0 6 8 10 18 10 10 0 24 9 32 20 8 11 22 20 32 20 10 0 18 5 18 10
0 6 7 10 15 10 8 0 15 5 15 10 0 6 8 10 18 10 10 0 24 9 32 20 8 11 22 20 32
20 10 0 18 5 18 10 0 6 9 10 20 10 11 0 20 5 20 10 0 6 7 10 16 10 8 0 22 7
30 15 9 8 24 15 35 15 10 0 19 5 19 10 0 6 2 10 5 10 3 0 5 -193 5 -430z
m-1442 388 c2 -4 11 -8 21 -8 9 0 23 -9 31 -20 8 -11 20 -20 27 -20 7 0 13 -4
13 -10 0 -5 8 -10 18 -10 10 0 24 -9 32 -20 8 -11 22 -20 32 -20 10 0 18 -4
18 -10 0 -5 9 -10 20 -10 11 0 20 -4 20 -10 0 -5 8 -10 18 -10 10 0 24 -9 32
-20 8 -11 22 -20 32 -20 10 0 18 -4 18 -10 0 -5 5 -10 11 -10 7 0 19 -8 28
-19 9 -10 32 -22 51 -26 19 -4 42 -16 51 -26 9 -11 24 -19 33 -19 9 0 16 -4
16 -10 0 -5 8 -10 18 -10 10 0 24 -9 32 -20 8 -11 22 -20 31 -20 9 0 20 -7 23
-16 3 -9 6 -200 6 -425 0 -357 -2 -409 -15 -409 -8 0 -15 5 -15 10 0 6 -9 10
-20 10 -11 0 -20 5 -20 10 0 6 -8 10 -18 10 -10 0 -24 9 -32 20 -8 11 -22 20
-32 20 -10 0 -18 5 -18 10 0 6 -7 10 -16 10 -9 0 -24 8 -33 19 -9 10 -30 21
-47 25 -16 4 -36 16 -44 26 -8 11 -22 20 -32 20 -10 0 -18 5 -18 10 0 6 -8 10
-18 10 -10 0 -24 9 -32 20 -8 11 -22 20 -32 20 -10 0 -18 5 -18 10 0 6 -8 10
-18 10 -10 0 -24 9 -32 20 -8 11 -20 20 -27 20 -7 0 -13 5 -13 10 0 6 -9 10
-20 10 -11 0 -20 5 -20 10 0 6 -8 10 -18 10 -10 0 -24 9 -32 20 -8 11 -22 20
-32 20 -17 0 -18 24 -18 420 l0 420 28 -6 c15 -4 29 -11 30 -16z m-158 -374
c0 -422 2 -408 -59 -420 -17 -4 -31 -10 -31 -15 0 -5 -8 -9 -18 -9 -10 0 -24
-9 -32 -20 -8 -11 -22 -20 -32 -20 -10 0 -18 -4 -18 -10 0 -5 -9 -10 -20 -10
-11 0 -20 -4 -20 -10 0 -5 -8 -10 -18 -10 -10 0 -24 -9 -32 -20 -8 -11 -20
-20 -27 -20 -7 0 -13 -4 -13 -10 0 -5 -9 -10 -20 -10 -11 0 -20 -4 -20 -10 0
-5 -8 -10 -18 -10 -10 0 -24 -9 -32 -20 -8 -11 -22 -20 -32 -20 -10 0 -18 -4
-18 -10 0 -5 -9 -10 -20 -10 -11 0 -20 -4 -20 -10 0 -5 -9 -10 -19 -10 -11 0
-26 -7 -35 -15 -8 -8 -19 -15 -25 -15 -6 0 -11 -4 -11 -10 0 -5 -9 -10 -20
-10 -11 0 -20 -4 -20 -10 0 -5 -8 -10 -18 -10 -10 0 -24 -9 -32 -20 -8 -11
-22 -20 -32 -20 -10 0 -18 -4 -18 -10 0 -5 -4 -10 -10 -10 -6 0 -10 138 -10
395 0 388 0 395 20 395 11 0 20 5 20 10 0 6 9 10 20 10 11 0 20 5 20 10 0 6 8
10 18 10 10 0 24 9 32 20 8 11 20 20 27 20 7 0 13 5 13 10 0 6 9 10 20 10 11
0 20 5 20 10 0 6 7 10 16 10 8 0 22 7 30 15 9 8 24 15 35 15 10 0 19 5 19 10
0 6 9 10 20 10 11 0 20 5 20 10 0 6 8 10 18 10 10 0 24 9 32 20 8 11 20 20 27
20 7 0 13 5 13 10 0 6 9 10 20 10 11 0 20 5 20 10 0 6 8 10 18 10 10 0 24 9
32 20 8 11 22 20 32 20 10 0 18 5 18 10 0 6 9 10 20 10 11 0 20 5 20 10 0 6 8
10 18 10 10 0 24 9 32 20 8 11 20 20 27 20 7 0 13 5 13 10 0 6 9 10 20 10 20
0 20 -7 20 -386z m40 -514 c0 -5 8 -10 18 -10 10 0 24 -9 32 -20 8 -11 22 -20
32 -20 10 0 18 -4 18 -10 0 -5 8 -10 18 -10 10 0 24 -9 32 -20 8 -11 22 -20
32 -20 10 0 18 -4 18 -10 0 -5 6 -10 13 -10 7 0 19 -9 27 -19 7 -11 31 -23 52
-26 21 -4 38 -11 38 -16 0 -5 8 -9 18 -9 10 0 24 -9 32 -20 8 -11 22 -20 32
-20 10 0 18 -4 18 -10 0 -5 9 -10 19 -10 11 0 23 -9 26 -20 3 -11 15 -20 26
-20 10 0 19 -4 19 -10 0 -5 8 -10 18 -10 10 0 24 -9 32 -20 8 -11 22 -20 32
-20 10 0 18 -4 18 -10 0 -5 8 -10 18 -10 10 0 24 -9 32 -20 8 -11 22 -20 32
-20 10 0 18 -4 18 -9 0 -5 15 -13 32 -17 18 -3 40 -15 49 -25 9 -11 24 -19 33
-19 9 0 16 -4 16 -10 0 -5 8 -10 18 -10 10 0 24 -9 32 -20 8 -11 22 -20 32
-20 10 0 18 -4 18 -10 0 -5 8 -10 18 -10 10 0 24 -9 32 -20 8 -11 20 -20 27
-20 7 0 13 -4 13 -10 0 -5 8 -10 18 -10 10 0 24 -9 32 -20 8 -11 22 -20 32
-20 10 0 18 -4 18 -10 0 -5 7 -10 16 -10 8 0 22 -7 30 -15 9 -8 24 -15 35 -15
10 0 19 -4 19 -10 0 -5 9 -10 20 -10 11 0 20 -4 20 -10 0 -5 6 -10 13 -10 7 0
19 -9 27 -20 8 -11 22 -20 32 -20 10 0 18 -4 18 -10 0 -5 8 -10 18 -10 10 0
24 -9 32 -20 8 -11 22 -20 32 -20 10 0 18 -4 18 -10 0 -5 8 -10 18 -10 10 0
24 -9 32 -20 8 -11 20 -20 27 -20 7 0 13 -4 13 -10 0 -5 8 -10 18 -10 10 0 24
-9 32 -19 7 -11 31 -23 52 -26 21 -4 38 -11 38 -16 0 -5 7 -9 16 -9 15 0 44
-23 44 -34 0 -3 -8 -6 -18 -6 -10 0 -24 -9 -32 -20 -8 -11 -22 -20 -32 -20
-10 0 -18 -4 -18 -10 0 -5 -9 -10 -20 -10 -11 0 -20 -4 -20 -10 0 -5 -8 -10
-18 -10 -10 0 -24 -9 -32 -20 -8 -11 -20 -20 -27 -20 -7 0 -13 -4 -13 -10 0
-5 -9 -10 -20 -10 -11 0 -20 -4 -20 -10 0 -5 -8 -10 -18 -10 -10 0 -24 -9 -32
-19 -7 -11 -31 -23 -52 -26 -21 -4 -38 -11 -38 -16 0 -5 -8 -9 -18 -9 -10 0
-24 -9 -32 -20 -8 -11 -20 -20 -27 -20 -7 0 -13 -4 -13 -10 0 -5 -9 -10 -20
-10 -11 0 -20 -4 -20 -10 0 -5 -8 -10 -18 -10 -10 0 -24 -9 -32 -20 -8 -11
-22 -20 -32 -20 -10 0 -18 -4 -18 -10 0 -5 -9 -10 -20 -10 -11 0 -20 -4 -20
-10 0 -5 -16 -10 -35 -10 -19 0 -35 5 -35 10 0 6 -8 10 -18 10 -10 0 -24 9
-32 20 -8 11 -22 20 -32 20 -10 0 -18 5 -18 10 0 6 -8 10 -18 10 -10 0 -24 9
-32 20 -8 11 -22 20 -32 20 -10 0 -18 5 -18 10 0 6 -9 10 -20 10 -11 0 -20 5
-20 10 0 6 -5 10 -11 10 -6 0 -17 7 -25 15 -9 8 -24 15 -35 15 -10 0 -19 5
-19 10 0 6 -8 10 -18 10 -10 0 -24 9 -32 20 -8 11 -22 20 -32 20 -10 0 -18 5
-18 10 0 6 -8 10 -18 10 -10 0 -24 9 -32 20 -8 11 -22 20 -32 20 -10 0 -18 5
-18 10 0 6 -6 10 -13 10 -7 0 -19 9 -27 20 -8 11 -22 20 -32 20 -10 0 -18 5
-18 10 0 6 -8 10 -18 10 -10 0 -24 9 -32 20 -8 11 -22 20 -32 20 -10 0 -18 4
-18 9 0 5 -18 12 -40 16 -26 4 -41 13 -45 26 -4 10 -15 19 -26 19 -10 0 -19 5
-19 10 0 6 -8 10 -18 10 -10 0 -24 9 -32 20 -8 11 -22 20 -32 20 -10 0 -18 5
-18 10 0 6 -8 10 -18 10 -10 0 -24 9 -32 20 -8 11 -22 20 -32 20 -10 0 -18 5
-18 10 0 6 -9 10 -19 10 -11 0 -23 9 -26 20 -3 11 -15 20 -26 20 -10 0 -19 5
-19 10 0 6 -9 10 -20 10 -11 0 -20 5 -20 10 0 6 -9 10 -19 10 -11 0 -26 7 -35
15 -8 8 -22 15 -30 15 -9 0 -16 5 -16 10 0 6 -8 10 -18 10 -10 0 -24 9 -32 20
-8 11 -20 20 -27 20 -7 0 -13 5 -13 10 0 6 -8 10 -18 10 -10 0 -24 9 -32 20
-8 11 -22 20 -32 20 -10 0 -18 5 -18 10 0 6 -8 10 -18 10 -10 0 -24 9 -32 20
-8 11 -22 20 -32 20 -10 0 -18 5 -18 10 0 6 -8 10 -18 10 -10 0 -24 9 -32 20
-8 11 -29 23 -47 26 -18 3 -33 10 -33 15 0 5 -7 9 -16 9 -15 0 -44 23 -44 34
0 3 9 6 20 6 11 0 20 5 20 10 0 6 8 10 18 10 10 0 24 9 32 20 8 11 20 20 27
20 7 0 13 5 13 10 0 6 9 10 20 10 11 0 20 5 20 10 0 6 8 10 18 10 10 0 24 9
32 20 8 11 22 20 32 20 10 0 18 5 18 10 0 6 9 10 20 10 11 0 20 5 20 10 0 6 9
10 20 10 11 0 20 4 20 10 0 5 11 12 25 16 14 3 25 10 25 15 0 5 9 9 20 9 11 0
20 5 20 10 0 6 8 10 18 10 10 0 24 9 32 20 8 11 22 20 32 20 10 0 18 5 18 10
0 6 9 10 20 10 11 0 20 5 20 10 0 6 8 10 18 10 10 0 24 9 32 20 8 11 20 20 27
20 7 0 13 5 13 10 0 6 18 10 40 10 22 0 40 -4 40 -10z m180 -1501 c0 -428 -1
-439 -42 -439 -8 0 -20 -9 -28 -20 -8 -11 -22 -20 -32 -20 -10 0 -18 -4 -18
-10 0 -5 -9 -10 -20 -10 -11 0 -20 -4 -20 -10 0 -5 -8 -10 -18 -10 -10 0 -24
-9 -32 -20 -8 -11 -22 -20 -32 -20 -10 0 -18 -4 -18 -9 0 -5 -15 -13 -32 -17
-18 -3 -40 -15 -49 -25 -9 -11 -24 -19 -33 -19 -9 0 -16 -4 -16 -10 0 -5 -9
-10 -20 -10 -11 0 -20 -4 -20 -10 0 -5 -8 -10 -18 -10 -10 0 -24 -9 -32 -20
-8 -11 -22 -20 -32 -20 -10 0 -18 -4 -18 -10 0 -5 -7 -10 -15 -10 -8 0 -15 -4
-15 -10 0 -5 -8 -10 -18 -10 -10 0 -24 -9 -32 -20 -8 -11 -22 -20 -32 -20 -10
0 -18 -4 -18 -10 0 -5 -9 -10 -20 -10 -11 0 -20 -4 -20 -10 0 -5 -9 -10 -20
-10 -11 0 -20 -4 -20 -10 0 -5 -12 -13 -27 -16 -16 -4 -31 -12 -35 -18 -4 -6
-8 179 -8 412 0 368 2 422 15 422 8 0 15 5 15 10 0 6 9 10 20 10 11 0 20 5 20
10 0 6 8 10 18 10 10 0 24 9 32 20 8 11 22 20 32 20 10 0 18 5 18 10 0 6 9 10
20 10 11 0 20 5 20 10 0 6 8 10 18 10 10 0 24 9 32 20 8 11 20 20 27 20 7 0
13 5 13 10 0 6 9 10 20 10 11 0 20 5 20 10 0 6 8 10 18 10 10 0 24 9 32 20 8
11 22 20 32 20 10 0 18 5 18 10 0 6 9 10 20 10 11 0 20 5 20 10 0 6 9 10 19
10 11 0 26 7 35 15 8 8 19 15 25 15 6 0 11 5 11 10 0 6 9 10 20 10 11 0 20 5
20 10 0 6 8 10 18 10 10 0 24 9 32 20 8 11 22 20 32 20 10 0 18 5 18 10 0 6 9
10 20 10 11 0 20 5 20 10 0 6 9 10 20 10 11 0 20 5 20 10 0 6 5 10 10 10 7 0
10 -144 10 -411z m110 381 c0 -5 8 -10 18 -10 10 0 24 -9 32 -20 8 -11 22 -20
32 -20 10 0 18 -4 18 -10 0 -5 9 -10 20 -10 11 0 20 -4 20 -10 0 -5 9 -10 19
-10 11 0 22 -9 26 -19 4 -13 19 -22 44 -26 20 -3 44 -15 51 -26 8 -10 22 -19
32 -19 10 0 18 -4 18 -10 0 -5 8 -10 18 -10 10 0 24 -9 32 -20 8 -11 22 -20
32 -20 10 0 18 -4 18 -10 0 -5 6 -10 13 -10 7 0 19 -9 27 -20 8 -11 22 -20 32
-20 10 0 18 -4 18 -10 0 -5 9 -10 20 -10 11 0 20 -4 20 -10 0 -5 8 -10 18 -10
10 0 24 -9 32 -20 8 -11 22 -20 32 -20 10 0 18 -4 18 -10 0 -5 7 -10 16 -10
43 0 44 -8 44 -429 0 -261 -3 -401 -10 -401 -5 0 -10 5 -10 10 0 6 -9 10 -20
10 -11 0 -20 5 -20 10 0 6 -9 10 -20 10 -11 0 -20 5 -20 10 0 6 -8 10 -18 10
-10 0 -24 9 -32 20 -8 11 -22 20 -32 20 -10 0 -18 5 -18 10 0 6 -8 10 -18 10
-10 0 -24 9 -32 20 -8 11 -20 20 -27 20 -7 0 -13 5 -13 10 0 6 -8 10 -18 10
-10 0 -24 9 -32 20 -8 11 -22 20 -32 20 -10 0 -18 5 -18 10 0 6 -7 10 -16 10
-8 0 -22 7 -30 15 -9 8 -24 15 -35 15 -10 0 -19 5 -19 10 0 6 -9 10 -19 10
-11 0 -23 9 -26 20 -3 11 -15 20 -26 20 -10 0 -19 5 -19 10 0 6 -9 10 -20 10
-11 0 -20 5 -20 10 0 6 -8 10 -18 10 -10 0 -24 9 -32 20 -8 11 -20 20 -28 20
-41 0 -42 11 -42 429 0 261 3 401 10 401 6 0 10 -4 10 -10z m1510 -411 c0
-421 -1 -429 -44 -429 -9 0 -16 -4 -16 -10 0 -5 -8 -10 -18 -10 -10 0 -24 -9
-32 -20 -8 -11 -22 -20 -32 -20 -10 0 -18 -4 -18 -10 0 -5 -9 -10 -20 -10 -11
0 -20 -4 -20 -10 0 -5 -9 -10 -19 -10 -10 0 -21 -7 -25 -15 -3 -8 -15 -15 -26
-15 -11 0 -20 -4 -20 -10 0 -5 -9 -10 -20 -10 -11 0 -20 -4 -20 -10 0 -5 -8
-10 -18 -10 -10 0 -24 -9 -32 -20 -8 -11 -22 -20 -32 -20 -10 0 -18 -4 -18
-10 0 -5 -9 -10 -20 -10 -11 0 -20 -4 -20 -10 0 -5 -9 -10 -19 -10 -11 0 -23
-9 -26 -20 -3 -11 -15 -20 -26 -20 -10 0 -19 -4 -19 -10 0 -5 -9 -10 -20 -10
-11 0 -20 -4 -20 -10 0 -5 -8 -10 -18 -10 -10 0 -24 -9 -32 -20 -8 -11 -22
-20 -32 -20 -17 0 -18 23 -18 390 l0 391 25 24 c13 14 31 25 40 25 8 0 15 5
15 10 0 6 9 10 20 10 11 0 20 5 20 10 0 6 8 10 18 10 10 0 24 9 32 20 8 11 20
20 27 20 7 0 13 5 13 10 0 6 8 10 18 10 10 0 24 9 32 20 8 11 22 20 32 20 10
0 18 5 18 10 0 6 9 10 20 10 11 0 20 5 20 10 0 6 8 10 18 10 10 0 24 9 32 20
8 11 22 20 32 20 10 0 18 4 18 9 0 5 15 13 32 17 18 3 40 15 49 25 9 11 24 19
33 19 9 0 16 5 16 10 0 6 9 10 20 10 11 0 20 5 20 10 0 6 8 10 18 10 10 0 24
9 32 20 8 11 18 20 22 20 4 0 8 -180 8 -401z m-1520 -509 c8 -11 22 -20 32
-20 10 0 18 -4 18 -10 0 -5 9 -10 19 -10 11 0 26 -7 35 -15 8 -8 22 -15 30
-15 9 0 16 -4 16 -10 0 -5 9 -10 19 -10 11 0 23 -9 26 -20 3 -11 15 -20 26
-20 10 0 19 -4 19 -10 0 -5 9 -10 20 -10 11 0 20 -4 20 -10 0 -5 8 -10 18 -10
10 0 24 -9 32 -20 8 -11 22 -20 32 -20 10 0 18 -4 18 -10 0 -5 8 -10 18 -10
10 0 24 -9 32 -20 8 -11 20 -20 27 -20 7 0 13 -4 13 -10 0 -5 7 -10 16 -10 8
0 22 -7 30 -15 9 -8 24 -15 35 -15 10 0 19 -4 19 -10 0 -5 7 -10 15 -10 9 0
27 -11 41 -25 22 -22 23 -27 10 -40 -8 -8 -22 -15 -30 -15 -9 0 -16 -4 -16
-10 0 -5 -9 -10 -20 -10 -11 0 -20 -4 -20 -10 0 -5 -8 -10 -18 -10 -10 0 -24
-9 -32 -20 -8 -11 -20 -20 -27 -20 -7 0 -13 -4 -13 -10 0 -5 -9 -10 -20 -10
-11 0 -20 -4 -20 -10 0 -5 -8 -10 -18 -10 -10 0 -24 -9 -32 -19 -7 -11 -31
-23 -52 -26 -21 -4 -38 -11 -38 -16 0 -5 -8 -9 -18 -9 -10 0 -24 -9 -32 -20
-8 -11 -20 -20 -27 -20 -7 0 -13 -4 -13 -10 0 -5 -9 -10 -20 -10 -11 0 -20 -4
-20 -10 0 -5 -8 -10 -18 -10 -10 0 -24 -9 -32 -20 -8 -11 -22 -20 -32 -20 -10
0 -18 -4 -18 -10 0 -5 -9 -10 -20 -10 -11 0 -20 -4 -20 -10 0 -5 -8 -10 -18
-10 -10 0 -24 -9 -32 -20 -8 -11 -20 -20 -27 -20 -7 0 -13 -4 -13 -10 0 -5 -9
-10 -20 -10 -11 0 -20 -4 -20 -10 0 -5 -9 -10 -20 -10 -11 0 -20 5 -20 10 0 6
-8 10 -18 10 -10 0 -24 9 -32 20 -8 11 -22 20 -32 20 -10 0 -18 5 -18 10 0 6
-9 10 -20 10 -11 0 -20 5 -20 10 0 6 -8 10 -18 10 -10 0 -24 9 -32 20 -8 11
-20 20 -27 20 -7 0 -13 5 -13 10 0 6 -8 10 -18 10 -10 0 -24 9 -32 20 -8 11
-22 20 -32 20 -10 0 -18 5 -18 10 0 6 -8 10 -18 10 -10 0 -24 9 -32 19 -7 11
-31 23 -51 26 -25 4 -40 13 -44 26 -4 10 -15 19 -26 19 -10 0 -19 5 -19 10 0
6 -8 10 -18 10 -10 0 -24 9 -32 20 -8 11 -22 20 -32 20 -10 0 -18 5 -18 10 0
6 -9 10 -20 10 -11 0 -20 5 -20 10 0 6 -9 10 -20 10 -11 0 -20 3 -20 6 0 11
29 34 42 34 8 0 20 9 28 20 8 11 22 20 32 20 10 0 18 5 18 10 0 6 9 10 20 10
11 0 20 5 20 10 0 6 9 10 19 10 11 0 26 7 35 15 8 8 19 15 25 15 6 0 11 5 11
10 0 6 9 10 20 10 11 0 20 5 20 10 0 6 8 10 18 10 10 0 24 9 32 20 8 11 22 20
32 20 10 0 18 5 18 10 0 6 9 10 20 10 11 0 20 5 20 10 0 6 8 10 18 10 10 0 24
9 32 20 8 11 20 20 27 20 7 0 13 5 13 10 0 6 9 10 20 10 11 0 20 5 20 10 0 6
8 10 18 10 10 0 24 9 32 19 7 11 31 23 52 26 21 4 38 11 38 16 0 5 9 9 19 9
11 0 22 6 24 13 4 9 8 8 17 -3 9 -11 13 -12 17 -2 2 6 11 12 19 12 8 0 14 5
14 10 0 18 35 11 50 -10z"/>
</g>
</svg>
